<svg xmlns="http://www.w3.org/2000/svg" viewBox="0 0 640 480">
  <path fill="#DE2910" d="M0 0h640v480H0z"/>
  <path fill="#FFDE00" d="M94 65l5.5 17h18l-14.5 10.5 5.5 17L94 99l-14.5 10.5 5.5-17L70.5 82h18z"/>
  <path fill="#FFDE00" d="M150 42l3.2 9.8h10.5l-8.5 6.2 3.2 9.8-8.5-6.2-8.5 6.2 3.2-9.8-8.5-6.2h10.5z"/>
  <path fill="#FFDE00" d="M168 80l2.4 7.4h8l-6.4 4.6 2.4 7.4-6.4-4.6-6.4 4.6 2.4-7.4-6.4-4.6h8z"/>
  <path fill="#FFDE00" d="M168 112l2.4 7.4h8l-6.4 4.6 2.4 7.4-6.4-4.6-6.4 4.6 2.4-7.4-6.4-4.6h8z"/>
  <path fill="#FFDE00" d="M150 134l3.2 9.8h10.5l-8.5 6.2 3.2 9.8-8.5-6.2-8.5 6.2 3.2-9.8-8.5-6.2h10.5z"/>
</svg>
